<?xml version="1.0" standalone="no"?>
<!DOCTYPE svg PUBLIC "-//W3C//DTD SVG 20010904//EN"
 "http://www.w3.org/TR/2001/REC-SVG-20010904/DTD/svg10.dtd">
<svg version="1.0" xmlns="http://www.w3.org/2000/svg"
 width="200.000000pt" height="200.000000pt" viewBox="0 0 200.000000 200.000000"
 preserveAspectRatio="xMidYMid meet">

<g transform="translate(0.000000,200.000000) scale(0.100000,-0.100000)"
fill="#000000" stroke="none">
<path d="M754 949 c-14 -15 -19 -36 -19 -74 0 -62 23 -95 66 -95 37 0 62 37
63 94 2 82 -63 127 -110 75z m45 -54 c-20 -45 -23 -47 -35 -30 -17 23 -10 54
18 78 33 28 41 6 17 -48z"/>
<path d="M1167 941 c-39 -66 -8 -161 53 -161 38 0 62 35 62 94 1 61 -22 96
-65 96 -25 0 -36 -6 -50 -29z m52 -46 c-20 -45 -23 -47 -35 -30 -17 23 -10 54
18 78 33 28 41 6 17 -48z"/>
</g>
</svg>
